:FULLY-SPECIFIED
:FORCE-ALL-JOINTS-BE-3DOF
:DEGREES
2446
root 2.36287 14.7416 -23.3554 923.418 87.4173 -156.545
lfemur -37.3191 19.6173 -13.4639
ltibia 73.5812 0 0
lfoot -25.5545 16.1615 0
ltoes -41.1597 0 0
rfemur -41.7384 -24.8248 12.4554
rtibia 68.3609 0 0
rfoot 6.95341 -0.681575 0
rtoes 1.97335 0 0
lowerback 16.1116 1.42775 -3.68382
upperback -0.946497 1.47693 2.49919
thorax -10.0856 0.990997 4.44554
lowerneck 3.59058 -14.7459 -16.1614
upperneck 0.678212 -20.4346 14.4234
head 2.36819 -10.2834 6.13453
lclavicle -2.22964e-15 1.48637e-14 0
lhumerus -42.8079 -37.2918 111.86
lradius 101.164 0 0
lwrist 61.3465 0 0
lhand -7.10338 403.157 0
lfingers 7.12502 0 0
lthumb 18.707 -648.576 0
rclavicle -2.22964e-15 1.48637e-14 0
rhumerus 33.1278 12.0416 -57.3794
rradius 107.375 0 0
rwrist -1.16693 0 0
rhand -29.7686 -402.788 0
rfingers 7.12502 0 0
rthumb -3.08845 287.712 0
2447
root 2.43782 14.7268 -23.377 923.813 87.1381 -155.964
lfemur -36.8784 19.8487 -13.4142
ltibia 73.8174 0 0
lfoot -25.8848 16.4137 0
ltoes -41.0251 0 0
rfemur -41.8906 -24.7939 12.0648
rtibia 67.0087 0 0
rfoot 7.41766 -0.23381 0
rtoes 2.26823 0 0
lowerback 16.0861 1.28732 -3.76796
upperback -0.954577 1.28449 2.58914
thorax -10.068 0.906947 4.64139
lowerneck 3.55369 -14.6816 -16.1239
upperneck 0.875157 -20.3531 14.2701
head 2.42726 -10.243 6.07727
lclavicle -1.29496e-15 1.51629e-14 0
lhumerus -43.4208 -37.6247 112.046
lradius 101.773 0 0
lwrist 62.8127 0 0
lhand -6.08792 403.184 0
lfingers 7.12502 0 0
lthumb 19.6833 -648.637 0
rclavicle -1.29496e-15 1.51629e-14 0
rhumerus 31.0229 10.5344 -58.422
rradius 106.907 0 0
rwrist 1.60415 0 0
rhand -30.6169 -402.966 0
rfingers 7.12502 0 0
rthumb -3.90723 287.539 0
2448
root 2.51231 14.7119 -23.3982 924.225 86.8498 -155.368
lfemur -36.4438 20.077 -13.3649
ltibia 74.0577 0 0
lfoot -26.2112 16.6658 0
ltoes -40.8872 0 0
rfemur -42.0462 -24.7622 11.6789
rtibia 65.6717 0 0
rfoot 7.86938 0.208723 0
rtoes 2.56079 0 0
lowerback 16.0611 1.14776 -3.85126
upperback -0.962936 1.09326 2.67818
thorax -10.0511 0.823414 4.83547
lowerneck 3.51635 -14.6144 -16.0834
upperneck 1.07158 -20.2675 14.1145
head 2.48615 -10.2007 6.01909
lclavicle -3.74163e-16 1.54404e-14 0
lhumerus -44.015 -37.9555 112.222
lradius 102.38 0 0
lwrist 64.2561 0 0
lhand -5.08292 403.211 0
lfingers 7.12502 0 0
lthumb 20.6495 -648.698 0
rclavicle -3.74163e-16 1.54404e-14 0
rhumerus 28.9269 9.04063 -59.4583
rradius 106.434 0 0
rwrist 4.35657 0 0
rhand -31.4546 -403.145 0
rfingers 7.12502 0 0
rthumb -4.7158 287.366 0
2449
root 2.58619 14.6968 -23.419 924.648 86.555 -154.764
lfemur -36.0164 20.3018 -13.3161
ltibia 74.3011 0 0
lfoot -26.5334 16.9167 0
ltoes -40.747 0 0
rfemur -42.205 -24.7309 11.2987
rtibia 64.3545 0 0
rfoot 8.30727 0.645482 0
rtoes 2.85043 0 0
lowerback 16.0367 1.00951 -3.93366
upperback -0.971558 0.90379 2.76605
thorax -10.0348 0.740653 5.02732
lowerneck 3.47891 -14.5451 -16.0406
upperneck 1.26663 -20.1791 13.9575
head 2.54463 -10.1569 5.96039
lclavicle 5.29937e-16 1.56945e-14 0
lhumerus -44.5916 -38.2831 112.387
lradius 102.982 0 0
lwrist 65.6746 0 0
lhand -4.0907 403.237 0
lfingers 7.12502 0 0
lthumb 21.6034 -648.758 0
rclavicle 5.29937e-16 1.56945e-14 0
rhumerus 26.8475 7.56344 -60.4845
rradius 105.957 0 0
rwrist 7.08213 0 0
rhand -32.2797 -403.323 0
rfingers 7.12502 0 0
rthumb -5.51227 287.193 0
2450
root 2.6593 14.6816 -23.4393 925.077 86.2565 -154.157
lfemur -35.5972 20.523 -13.2676
ltibia 74.5467 0 0
lfoot -26.8511 17.1658 0
ltoes -40.6057 0 0
rfemur -42.3668 -24.7012 10.9255
rtibia 63.0616 0 0
rfoot 8.73003 1.07593 0
rtoes 3.13659 0 0
lowerback 16.0129 0.872993 -4.01511
upperback -0.98043 0.716635 2.85249
thorax -10.0193 0.658915 5.21649
lowerneck 3.44177 -14.4746 -15.9963
upperneck 1.45947 -20.0889 13.8005
head 2.60246 -10.1124 5.90161
lclavicle 1.41452e-15 1.59234e-14 0
lhumerus -45.1514 -38.6059 112.544
lradius 103.577 0 0
lwrist 67.0661 0 0
lhand -3.11358 403.263 0
lfingers 7.12502 0 0
lthumb 22.5427 -648.818 0
rclavicle 1.41452e-15 1.59234e-14 0
rhumerus 24.7922 6.10603 -61.4969
rradius 105.478 0 0
rwrist 9.77267 0 0
rhand -33.0904 -403.501 0
rfingers 7.12502 0 0
rthumb -6.29475 287.021 0
2451
root 2.73149 14.6662 -23.459 925.506 85.9569 -153.556
lfemur -35.1876 20.74 -13.2195
ltibia 74.7937 0 0
lfoot -27.164 17.412 0
ltoes -40.4641 0 0
rfemur -42.5313 -24.674 10.5601
rtibia 61.7975 0 0
rfoot 9.13637 1.49951 0
rtoes 3.41867 0 0
lowerback 15.9898 0.738639 -4.09555
upperback -0.98954 0.53234 2.93726
thorax -10.0045 0.578454 5.40255
lowerneck 3.40528 -14.4038 -15.9509
upperneck 1.64927 -19.9981 13.6444
head 2.65938 -10.0676 5.84315
lclavicle 2.27677e-15 1.61252e-14 0
lhumerus -45.6955 -38.9229 112.694
lradius 104.163 0 0
lwrist 68.4284 0 0
lhand -2.15389 403.289 0
lfingers 7.12502 0 0
lthumb 23.4653 -648.877 0
rclavicle 2.27677e-15 1.61252e-14 0
rhumerus 22.7685 4.67156 -62.4915
rradius 104.996 0 0
rwrist 12.42 0 0
rhand -33.8846 -403.677 0
rfingers 7.12502 0 0
rthumb -7.06134 286.849 0
2452
root 2.8026 14.6508 -23.478 925.929 85.6588 -152.965
lfemur -34.7887 20.9527 -13.1716
ltibia 75.0411 0 0
lfoot -27.4717 17.6545 0
ltoes -40.3234 0 0
rfemur -42.6982 -24.6505 10.2037
rtibia 60.5669 0 0
rfoot 9.52501 1.91571 0
rtoes 3.6961 0 0
lowerback 15.9674 0.606877 -4.17492
upperback -0.998871 0.351453 3.02011
thorax -9.99061 0.49952 5.58503
lowerneck 3.36984 -14.3335 -15.9052
upperneck 1.83517 -19.9079 13.4905
head 2.71518 -10.0231 5.78545
lclavicle 3.11386e-15 1.62982e-14 0
lhumerus -46.2249 -39.2326 112.837
lradius 104.738 0 0
lwrist 69.7596 0 0
lhand -1.21395 403.313 0
lfingers 7.12502 0 0
lthumb 24.3689 -648.935 0
rclavicle 3.11386e-15 1.62982e-14 0
rhumerus 20.7839 3.26321 -63.4648
rradius 104.515 0 0
rwrist 15.016 0 0
rhand -34.6603 -403.853 0
rfingers 7.12502 0 0
rthumb -7.81015 286.679 0
2453
root 2.87246 14.6353 -23.4962 926.341 85.3649 -152.392
lfemur -34.4015 21.1605 -13.124
ltibia 75.2881 0 0
lfoot -27.774 17.8925 0
ltoes -40.1846 0 0
rfemur -42.8674 -24.6318 9.85744
rtibia 59.3743 0 0
rfoot 9.89465 2.32396 0
rtoes 3.96829 0 0
lowerback 15.9457 0.478134 -4.25316
upperback -1.00841 0.174524 3.10077
thorax -9.97754 0.422367 5.76349
lowerneck 3.33581 -14.2645 -15.8599
upperneck 2.01634 -19.8196 13.3399
head 2.7696 -9.97953 5.72893
lclavicle 3.92297e-15 1.64406e-14 0
lhumerus -46.7406 -39.5337 112.975
lradius 105.299 0 0
lwrist 71.0575 0 0
lhand -0.296092 403.336 0
lfingers 7.12502 0 0
lthumb 25.2512 -648.993 0
rclavicle 3.92297e-15 1.64406e-14 0
rhumerus 18.846 1.88417 -64.4128
rradius 104.034 0 0
rwrist 17.5524 0 0
rhand -35.4157 -404.026 0
rfingers 7.12502 0 0
rthumb -8.53928 286.511 0
2454
root 2.94094 14.6197 -23.5134 926.735 85.0778 -151.843
lfemur -34.0273 21.3632 -13.0766
ltibia 75.5336 0 0
lfoot -28.0706 18.1251 0
ltoes -40.0488 0 0
rfemur -43.0384 -24.6189 9.52228
rtibia 58.2243 0 0
rfoot 10.244 2.72373 0
rtoes 4.23467 0 0
lowerback 15.9248 0.352841 -4.33022
upperback -1.01815 0.00210033 3.179
thorax -9.96537 0.347248 5.93748
lowerneck 3.30357 -14.1977 -15.8155
upperneck 2.19194 -19.7341 13.1936
head 2.8224 -9.93744 5.674
lclavicle 4.70129e-15 1.65506e-14 0
lhumerus -47.2435 -39.825 113.109
lradius 105.845 0 0
lwrist 72.3201 0 0
lhand 0.59737 403.358 0
lfingers 7.12502 0 0
lthumb 26.1101 -649.05 0
rclavicle 4.70129e-15 1.65506e-14 0
rhumerus 16.9623 0.537617 -65.3318
rradius 103.556 0 0
rwrist 20.0211 0 0
rhand -36.1487 -404.198 0
rfingers 7.12502 0 0
rthumb -9.24683 286.344 0
2455
root 3.00786 14.6041 -23.5297 927.105 84.8003 -151.324
lfemur -33.6672 21.5603 -13.0293
ltibia 75.7769 0 0
lfoot -28.361 18.3515 0
ltoes -39.917 0 0
rfemur -43.2112 -24.613 9.19932
rtibia 57.1213 0 0
rfoot 10.5718 3.11447 0
rtoes 4.49465 0 0
lowerback 15.9048 0.231424 -4.40603
upperback -1.02807 -0.165269 3.25454
thorax -9.95417 0.274414 6.10655
lowerneck 3.27349 -14.1339 -15.7728
upperneck 2.36112 -19.6528 13.0529
head 2.87335 -9.89741 5.6211
lclavicle 5.44599e-15 1.66264e-14 0
lhumerus -47.7347 -40.1051 113.24
lradius 106.373 0 0
lwrist 73.5451 0 0
lhand 1.46411 403.379 0
lfingers 7.12502 0 0
lthumb 26.9433 -649.106 0
rclavicle 5.44599e-15 1.66264e-14 0
rhumerus 15.1402 -0.773279 -66.218
rradius 103.081 0 0
rwrist 22.4138 0 0
rhand -36.8573 -404.367 0
rfingers 7.12502 0 0
rthumb -9.93092 286.18 0
2456
root 3.07308 14.5884 -23.5449 927.446 84.5349 -150.842
lfemur -33.3225 21.7517 -12.982
ltibia 76.0171 0 0
lfoot -28.645 18.5706 0
ltoes -39.7902 0 0
rfemur -43.3853 -24.6152 8.88964
rtibia 56.07 0 0
rfoot 10.8766 3.49566 0
rtoes 4.74765 0 0
lowerback 15.8857 0.114314 -4.48054
upperback -1.03815 -0.327035 3.32714
thorax -9.94396 0.204119 6.27026
lowerneck 3.24596 -14.0741 -15.7323
upperneck 2.52305 -19.5767 12.9188
head 2.92221 -9.86002 5.57062
lclavicle 6.15426e-15 1.66662e-14 0
lhumerus -48.2151 -40.3727 113.37
lradius 106.881 0 0
lwrist 74.7306 0 0
lhand 2.3018 403.398 0
lfingers 7.12502 0 0
lthumb 27.7486 -649.162 0
rclavicle 6.15426e-15 1.66662e-14 0
rhumerus 13.3874 -2.04534 -67.0677
rradius 102.61 0 0
rwrist 24.7225 0 0
rhand -37.5398 -404.534 0
rfingers 7.12502 0 0
rthumb -10.5896 286.018 0
